<?xml version="1.0" encoding="utf-8"?>
<!-- Generator: Adobe Illustrator 27.0.0, SVG Export Plug-In . SVG Version: 6.00 Build 0)  -->
<svg version="1.1" baseProfile="tiny" id="Layer_1" xmlns="http://www.w3.org/2000/svg" xmlns:xlink="http://www.w3.org/1999/xlink"
	 x="0px" y="0px" viewBox="0 0 60 60" overflow="visible" xml:space="preserve">
<g>
	<path fill="#AD2118" d="M59.5,27.4c-0.2,0-0.4-0.1-0.5-0.1c-0.9-0.2-1.8-0.4-2.6-0.6c-0.1,0-0.1-0.1-0.2-0.2
		c0.1-0.2,0.1-0.3,0.2-0.5c0.6-1,1.3-1.9,1.9-2.9c0.2-0.3,0.5-0.6,0.5-1.1c-0.1-0.1-0.2-0.3-0.3-0.3c-1.2,0.1-2.4,0.1-3.7,0.2
		c0.6-1.2,1.3-2.2,1.9-3.3c-0.1-0.2-0.2-0.3-0.2-0.5c-0.9-0.1-1.9-0.1-2.8-0.2c-0.5,0-0.9,0-1.4,0c-0.2,0-0.3,0-0.5,0
		c0-0.1,0-0.2,0-0.2c0.2-0.4,0.3-0.9,0.5-1.3c0.5-1,0.9-2.1,1.2-3.2c-0.1-0.1-0.3-0.3-0.4-0.4c-1.3,0.4-2.5,0.9-3.8,1.3
		c0-0.3,0-0.6,0.1-0.8c0.2-0.9,0.4-1.9,0.6-2.8c0-0.2,0.1-0.4-0.1-0.6c-0.2-0.1-0.4-0.1-0.6-0.2c-1.2,0.4-2.7,0.7-3.3,0.6
		c0-0.6-0.1-1.2,0-1.8c0.1-0.5,0.1-0.9,0.1-1.4c0-0.3-0.2-0.5-0.4-0.6c-0.4,0.1-0.7,0.2-1.1,0.2c-0.4,0-0.7,0.1-1,0.2
		c-0.7,0.3-1.4,0.5-2.2,0.8c-0.1-0.2-0.2-0.3-0.2-0.4c-0.1-0.8-0.1-1.5-0.2-2.3c0-0.3,0-0.5-0.3-0.7c-0.8,0-1.5,0.5-2.3,0.8
		c-0.8,0.2-1.6,0.6-2.4,0.9c-0.2-1.1-0.3-2.3-0.5-3.4c-0.2-0.1-0.4-0.2-0.6-0.4c-0.3,0.2-0.6,0.3-0.8,0.5c-0.4,0.3-0.7,0.6-1.1,0.9
		c-0.5,0.4-1,0.7-1.5,1.1c-0.3-0.7-0.5-1.4-0.6-2.1c-0.1-0.6-0.3-1.2-0.8-1.6c-0.1,0-0.2,0-0.3,0.1c-0.7,0.5-1.2,1-1.6,1.7
		c-0.3,0.6-0.7,1-1.1,1.5c-0.5-0.8-0.9-1.6-1.3-2.3c-0.2-0.4-0.6-0.6-1-0.7c-0.6,0.3-0.7,0.3-1,0.8c-0.4,0.6-0.6,1.3-0.8,2
		c-0.1,0.4-0.2,0.8-0.3,1.3c-0.4-0.3-0.6-0.5-0.9-0.7c-0.3-0.2-0.5-0.5-0.8-0.6c-0.7-0.3-1.3-0.6-2-1c-0.2-0.1-0.4-0.1-0.5,0
		c-0.7,1.3-0.3,2.7-0.5,4c-0.2,0-0.4,0-0.5-0.1c-0.7-0.2-1.4-0.5-2.1-0.8c-0.5-0.2-0.9-0.5-1.4-0.5c-0.1,0-0.1,0-0.2,0
		c-0.1,0.1-0.1,0.2-0.2,0.3c0.1,0.6,0.2,1.1,0.3,1.7c0.1,0.5,0.3,1.1,0.2,1.7c-1.2-0.4-2.4-0.8-3.6-1.2c-0.1,0.3-0.3,0.5-0.4,0.7
		c0,0.7,0,1.3,0,2c0,0.7,0.2,1.3,0.2,1.9c-0.8,0-1.6-0.1-2.4-0.1c-0.8,0-1.6-0.1-2.3,0.3c0.6,1.4,1.1,2.7,1.7,3.9
		c-0.2,0.3-0.4,0.2-0.7,0.2c-0.9,0-1.7,0-2.6,0c-0.4,0-0.7,0-1,0.4c0.1,0.2,0.1,0.4,0.2,0.5c0.5,0.9,1.1,1.7,1.6,2.6
		c0.1,0.1,0.1,0.2,0.1,0.4c-1.3,0.1-2.6,0.6-4,0.5c-0.1,0.2-0.1,0.3-0.2,0.5c1.1,1.2,2,2.5,2.8,3.9c-1.3,0.5-2.5,1-3.4,2.1
		c0,0.1,0,0.3,0,0.4c0.6,0.4,1.2,0.6,1.7,1c0.5,0.4,1.2,0.6,1.7,1.1c-0.8,0.9-1.5,2-2.5,2.7c-0.3,0.2-0.6,0.5-0.6,1
		c0.2,0.1,0.3,0.3,0.5,0.3c0.5,0.2,1,0.3,1.5,0.4c0.6,0.1,1.3,0.2,1.9,0.5c0,0.1,0,0.1,0,0.1C3.5,36.4,3,37,2.4,37.7
		C2.1,38,1.7,38.4,1.6,39c1.1,0.7,2.5,0.9,3.5,1.8c-0.5,0.9-1,1.8-1.5,2.7c-0.1,0.2-0.2,0.5,0,0.8c0.4,0.1,1,0,1.5,0.1
		c0.5,0.1,1,0.2,1.5,0.2c0.5,0.1,1,0.1,1.5,0.2C8,44.9,8,45,7.9,45.1c-0.6,1-1,2-1.4,3.1c-0.1,0.3-0.2,0.5,0.1,0.8
		C6.8,49,7,49,7.2,49c0.4-0.2,0.9-0.1,1.3-0.1c0.7,0,1.4,0.1,2.2-0.1c0.1,0,0.2,0,0.4,0c-0.4,1.2-0.8,2.4-1.1,3.6
		c0.2,0.4,0.4,0.3,0.7,0.2c1-0.3,2-0.5,2.9-0.9c0.2-0.1,0.4-0.1,0.7-0.1c-0.1,1.3-0.6,2.6-0.4,4c0.8,0.1,1.5-0.2,2.2-0.4
		c0.7-0.2,1.4-0.4,2.1-0.7c0.1,0.3,0.1,0.5,0.2,0.8c0.1,0.5,0.1,0.9,0.1,1.4c0,0.2,0.1,0.4,0.2,0.6c0.8,0.1,1.4-0.4,2.1-0.5
		c0.7-0.1,1.3-0.6,2-0.8c0.4,0.4,0.3,1,0.5,1.4c0.2,0.4,0.4,0.9,0.6,1.4c0.2,0.1,0.4,0.1,0.6,0.2c0.4-0.4,0.8-0.8,1.3-1.1
		c0.5-0.4,0.9-0.8,1.4-1.2c0.7,0.8,1,1.8,1.8,2.5c0.2,0,0.3,0,0.5,0c1-0.5,1.5-1.6,2.5-2.1c0.8,0.4,1.7,0.8,2.5,1.1
		c0.3,0.1,0.6,0.3,1.1,0.1c0.4-0.7,1-1.5,1.1-2.4c0.9,0.4,1.8,0.6,2.6,1.1c0.1,0.1,0.2,0.2,0.4,0.2c0.4,0.1,0.8,0.1,1-0.3
		c0.2-0.9,0.3-1.8,0.5-2.7c0.6,0.3,1.3,0.5,1.8,0.8c0.5,0.3,1.1,0.3,1.6,0.2c0.3-0.3,0.2-0.6,0.2-0.9c-0.1-0.6-0.3-1.2-0.4-1.8
		c-0.1-0.3-0.1-0.7,0-1c1.3,0.3,2.4,1.2,3.7,1.3c0.2-0.3,0.6-0.4,0.6-0.8c0-0.6,0.1-1.2,0.1-1.7c0.1-0.5,0.1-1.1,0.3-1.6
		c1,0.9,2.3,1,3.4,1.4c0.1-0.1,0.2-0.2,0.3-0.2c0.6-0.5,0.7-0.6,0.5-1.4c0-0.1-0.1-0.2-0.1-0.3c-0.3-0.9-0.6-1.8-1-2.7
		c0.2-0.1,0.4-0.1,0.6-0.2c0.7-0.1,1.5-0.2,2.2-0.4c0.3-0.1,0.6-0.2,0.8-0.4c0.4-0.3,0.4-0.5,0.2-0.9c-0.3-0.5-0.6-1.1-1-1.6
		c-0.1-0.2-0.2-0.4-0.4-0.6c1-0.6,2.1-0.8,2.9-1.7c0-0.5-0.1-0.8-0.3-1.2c-0.5-0.8-0.9-1.7-1.2-2.6c0.8-0.5,1.6-1,2.5-1.3
		c0.4-0.1,0.6-0.4,0.5-0.8c-0.8-0.9-1.6-1.8-2.4-2.8c0.2-0.2,0.3-0.3,0.4-0.4c0.8-0.6,1.6-1.1,2.4-1.7c0.3-0.2,0.5-0.3,0.6-0.6
		C60,27.7,59.8,27.5,59.5,27.4z"/>
	<g>
		<g>
			<path fill="#FFFFFF" d="M31,27.7L31,27.7c-0.1-0.1-0.2-0.2-0.2-0.3c0,0,0-0.1-0.1-0.1c0-0.1-0.1-0.2-0.1-0.3c0-0.1,0-0.2-0.1-0.2
				c0-0.1,0-0.2-0.1-0.2l0,0l0,0c0-0.2,0-0.4,0-0.5c0-0.1,0-0.3,0-0.3c0,0,0.1-0.4,0.1-0.5c0.1-0.2,0.2-0.4,0.3-0.6
				c0.1-0.1,0.1-0.2,0.1-0.2c0,0,0.1-0.3,0.2-0.5c0.1-0.2,0.1-0.4,0.2-0.5c0-0.1,0-0.2,0-0.2c0,0,0,0,0-0.1c0-0.1,0-0.2,0-0.2
				c0,0,0-0.1,0-0.1c0-0.2-0.2-0.3-0.3-0.4L31,22.4c0,0,0,0-0.1,0c0,0-0.1-0.1-0.1-0.1c-0.1,0-0.2,0-0.3,0c-0.1,0-0.2,0-0.4,0
				c-0.1,0-0.3,0-0.4-0.1c-0.3-0.1-0.6-0.2-1.1-0.2c-0.2,0.1-0.6,0.3-0.7,0.5c-0.1,0.3-0.3,0.9-0.4,1.3c0,0,0,0,0,0
				c-0.1,0.6,0.1,1,0.3,1.5c0,0,0,0.1,0.1,0.1c0,0,0,0.1,0,0.1c0.1,0.5,0.7,1,0.9,1.4c0,0,0.2,0.2,0.2,0.2c0,0,0,0,0,0
				c0-0.1-0.1-0.2-0.1-0.3c0-0.1-0.1-0.1-0.1-0.2c0,0,0-0.1,0-0.1c-0.2-0.3-0.5-1.1-0.6-1.4c-0.1-0.3-0.2-0.5-0.2-0.7c0,0,0,0,0,0
				c0-0.3,0.2-1.2,0.2-1.3c0,0,0-0.1,0-0.1c0-0.1,0.1-0.2,0.1-0.3c0.2-0.2,0.4-0.3,0.6-0.3c0.1,0,0.6,0.1,0.7,0.2c0,0,0.1,0,0.2,0
				c0,0,0,0,0.1,0l0,0c0,0,0,0,0,0c0,0,0,0,0.1,0c0.1,0,0.2,0,0.3,0c0.1,0,0.3,0,0.3,0c0.2,0,0.3,0.3,0.3,0.5l0,0l0,0
				c-0.1,0.4-0.1,0.6-0.3,0.9c0,0.1-0.1,0.2-0.1,0.2c0,0-0.1,0.1-0.1,0.2c-0.1,0.2-0.2,0.4-0.3,0.5c0,0,0,0,0,0.1c0,0.1,0,0.1,0,0.2
				c0,0,0,0.1,0,0.1c0,0.1,0,0.1,0,0.2c0,0.1,0,0.1,0,0.2c0,0.1,0,0.1,0,0.2c0,0.1,0,0.2,0,0.3c0,0.3,0.1,0.5,0.2,0.8l0,0
				c0,0,0,0.1,0,0.2l0,0l0,0c0,0,0,0,0,0c0,0,0,0,0,0c0,0,0-0.1-0.1-0.1c-0.1-0.1-0.1-0.1-0.2-0.2c0,0-0.1-0.1-0.1-0.1c0,0,0,0,0,0
				c-0.1-0.2-0.2-0.4-0.4-0.7c0-0.1-0.1-0.1-0.1-0.2c0-0.1-0.1-0.2-0.1-0.3l0-0.1c0-0.1-0.1-0.2-0.1-0.4c0-0.1,0-0.1,0-0.2
				c0-0.1,0-0.2,0-0.2c0-0.1-0.1-0.6-0.1-0.7l0,0c0,0,0-0.1,0.1-0.2c0.1-0.2,0.1-0.2,0.1-0.3c0,0,0-0.1,0.1-0.1c0,0,0,0,0,0l0,0l0,0
				c0.2,0,0.4,0,0.6,0.1l0,0l0,0c0,0,0,0,0,0c0,0,0,0,0,0.1c0,0,0,0,0,0c0,0.4-0.2,0.8-0.2,1.2c0,0,0,0,0,0c0,0,0.1,0,0.1,0
				c0,0,0,0,0,0c0.2-0.3,0.4-0.7,0.4-0.8c0-0.1,0.1-0.2,0.1-0.3l0-0.1c0,0,0-0.1,0-0.2c0,0,0-0.1,0-0.1c0,0,0-0.1,0-0.1l0,0
				c-0.1-0.2-0.3-0.3-0.5-0.3c-0.1,0-0.2,0-0.2,0c-0.1,0-0.2,0-0.4,0.1c-0.2,0.1-0.3,0.2-0.4,0.4c-0.1,0.1-0.1,0.3-0.1,0.4
				c0,0.3,0,0.6,0.1,0.8c0.1,0.3,0.1,0.5,0.2,0.7c0,0.1,0,0.1,0.1,0.2c0,0.1,0,0.1,0.1,0.2c0,0.1,0.1,0.1,0.1,0.2
				c0,0.1,0.1,0.1,0.1,0.2c0,0.1,0.1,0.3,0.2,0.4l0,0c0.1,0.2,0.3,0.5,0.5,0.7c0.1,0.1,0.2,0.2,0.3,0.3c0.1,0.1,0.2,0.2,0.4,0.3
				c0.2,0.1,0.5,0.2,0.7,0.3l0,0c0,0,0.1,0,0.1,0l0.1,0c0.1-0.1,0.2-0.1,0.3-0.1C31.5,28.1,31.2,27.8,31,27.7z"/>
			<path fill="#FFFFFF" d="M33.8,27.9c-0.3-0.2-0.6-0.3-1-0.6c-0.1-0.1-0.2-0.1-0.3-0.2c0,0,0,0-0.1-0.1c-0.2-0.2-0.9-0.4-0.8-1.4
				c0-0.3,0.3-0.5,0.4-0.8l0-0.1c0-0.1,0.2-0.2,0.2-0.3c0.1-0.3,0.2-0.5,0.2-0.8c0-0.1,0-0.2,0-0.3c0-0.1,0-0.2,0-0.3
				c0-0.1,0-0.4-0.1-0.5c-0.1-0.4-0.2-0.6-0.4-0.9c0,0,0,0-0.1-0.1L32,21.3l0.1,0c0,0,0.1,0,0.1,0c0.1,0,0.2-0.1,0.3-0.1
				c0.2-0.1,0.2-0.1,0.2-0.2l0-0.1c0-0.1,0-0.1,0-0.2c0-0.1,0-0.1-0.1-0.1c0,0-0.1,0-0.1,0c-0.1,0-0.2,0-0.3,0.1
				c-0.3,0.1-0.7,0.2-0.9,0.1c0,0-0.1,0-0.1,0c-0.1,0-0.2,0-0.3,0c-0.1,0-0.2-0.1-0.2-0.2c0-0.1,0-0.2,0-0.3
				c0.2-0.3,0.5-0.6,0.7-0.8c0.3-0.3,0.6-0.4,0.9-0.5c0.2,0,0.6-0.1,0.7,0.1l0,0c0.2,0.1,0.4,0.3,0.4,0.6c0,0,0,0.1,0,0.1
				c0,0.1,0,0,0,0.1c0,0.1,0,0.2,0.1,0.2c0,0,0.1,0.1,0.1,0.1c0.1,0.1,0.1,0.1,0.2,0.1c0,0,0.1,0,0.1,0c0,0,0.1-0.1,0.1-0.1
				c0-0.2,0-0.3,0-0.5c0-0.1,0-0.2,0-0.2c-0.1-0.2-0.2-0.3-0.3-0.5c-0.3-0.3-0.6-0.4-0.9-0.5l0,0c-0.2,0-0.7,0-0.9,0
				c-0.4,0-0.7,0.3-1,0.5c-0.1,0.1-0.1,0.1-0.2,0.2c-0.1,0.1-0.1,0.1-0.2,0.2c-0.1,0.1-0.1,0.2-0.2,0.2c-0.1,0.1-0.1,0.2-0.1,0.3
				c0,0,0,0,0,0.1c-0.1,0.2-0.4,0.4-0.7,0.5c-0.2,0-0.7,0-1.1-0.3c-0.1-0.1-0.2-0.1-0.3-0.2c0,0-0.1,0-0.1,0c0,0-0.1,0-0.1,0.1
				c-0.1,0.2,0,0.1,0,0.3c0,0.1,0,0.2,0.1,0.2c0.1,0,0.4,0.2,0.5,0.2l-0.1,0.1c-0.1,0-0.2,0.1-0.3,0.1c0,0-0.1,0-0.1,0
				c-0.2,0.1-0.5,0.3-0.7,0.4c-0.3,0.3-0.7,0.9-0.8,1c-0.2,0.4-0.3,0.9-0.3,1.3c0,0.1,0,0.1,0,0.2c0,0,0,0.1,0,0.1
				c0,0.5-0.1,0.9,0.1,1.2c0.1,0.2,0.2,0.4,0.4,0.7c0.1,0.2,0.3,0.5,0.4,0.7c0.1,0.3,0.3,0.6,0.5,0.8c0.2,0.4,0.5,0.7,0.8,1
				c0.1,0.1,0.1,0.1,0.2,0.2c0.2,0.3,0.5,0.5,0.8,0.6c0.1,0,0.1,0.1,0.2,0.1c0.1,0,0.1,0.1,0.2,0.1c0.4,0.2,0.7,0.2,1.1,0.2l0,0
				c0.1,0,0.3,0,0.5,0c0.1,0,0.1,0,0.1,0c0,0,0.1,0,0.1,0c0.1,0,0.1,0,0.2,0c1-0.2,1.4-0.3,1.6-0.5c0.1-0.1,0.2-0.2,0.3-0.2
				c0.2-0.2,0.3-0.3,0.4-0.6c0-0.1,0-0.2,0-0.2C33.9,28,33.9,28,33.8,27.9z M33.1,28.4c-0.1,0.1-0.1,0.1-0.2,0.2
				c-0.1,0-0.1,0.1-0.2,0.1c-0.1,0.1-0.4,0.1-0.5,0.2c-0.1,0-0.3,0-0.4,0.1c-0.1,0-0.2,0-0.2,0l0,0c-0.2,0-0.3,0-0.4,0
				c-0.1,0-0.2,0-0.3,0c-0.1,0-0.2,0-0.4,0c-0.1,0-0.6-0.1-0.8-0.2c-0.2-0.1-0.5-0.2-0.7-0.5c-0.1-0.1-0.4-0.4-0.4-0.4l0,0
				c-0.1-0.2-0.3-0.4-0.4-0.6c-0.1-0.2-0.3-0.4-0.4-0.6c-0.2-0.3-0.3-0.6-0.5-0.9l-0.1-0.2c-0.2-0.3-0.4-0.8-0.3-1.1
				c0-0.2,0.1-0.4,0.1-0.6c0-0.1,0-0.2,0.1-0.3c0-0.1,0-0.2,0.1-0.3c0-0.2,0.1-0.4,0.2-0.6c0-0.1,0.1-0.2,0.1-0.3
				c0,0,0.1-0.1,0.1-0.1c0.1-0.2,0.3-0.4,0.5-0.6c0.1-0.1,0.5-0.2,0.7-0.2c0.2,0,0.6,0.1,0.9,0.2c0.1,0,0.2,0.1,0.3,0.1
				c0.2,0,0.5,0,0.8-0.1c0.3-0.1,0.5-0.1,0.6,0c0.4,0.2,0.6,0.5,0.7,0.9c0.1,0.4,0.1,0.6,0.1,0.7c0,0.1,0,0.1,0,0.1c0,0,0,0.1,0,0.1
				c0,0.1,0,0.1,0,0.2c0,0.2,0,0.3-0.1,0.5c-0.1,0.2-0.7,0.9-0.7,1.2c-0.1,0.3-0.1,0.8,0,1.1c0,0.1,0,0.2,0.1,0.3l0,0.1
				c0.2,0.4,0.7,0.6,0.9,0.8c0.1,0.1,0.1,0.1,0.1,0.2c0.1,0.1,0.2,0.1,0.4,0.1c0.1,0.1,0.3,0.2,0.4,0.3c0.1,0.1,0.1,0.1,0.1,0.2
				C33.2,28.3,33.2,28.3,33.1,28.4z"/>
			<path fill="#FFFFFF" d="M41.4,25.8c-0.1-0.1-0.1-0.1-0.1-0.1c-0.3-0.1-0.5-0.1-0.8-0.2c-0.1,0-0.2,0-0.3-0.1c-0.1,0-0.2,0-0.3,0
				c-0.2,0-0.4-0.1-0.6-0.1c-0.3-0.1-0.6-0.1-0.9-0.2c-0.4-0.1-0.7-0.1-1.1-0.2c-0.2,0-0.4-0.1-0.6-0.1c-0.3-0.1-0.5-0.1-0.8-0.1
				c-0.1,0-0.2,0-0.3,0c-0.1,0.1-0.1,0.3-0.1,0.5c0,0.1,0,0.1,0.2,0.2c0.3,0.1,0.7,0.2,1,0.3c0.4,0.1,0.8,0.2,1.2,0.3
				c0.3,0.1,0.6,0.1,0.8,0.2c0.3,0.1,0.5,0.1,0.8,0.2c0.3,0.1,0.5,0.1,0.8,0.2c0.1,0,0.2,0.1,0.4,0.1c0,0,0.1,0,0.1,0l0.1,0
				c0,0,0,0,0,0c0.1,0,0.1,0,0.2-0.1c0-0.1,0.1-0.1,0.1-0.2C41.4,26,41.4,25.9,41.4,25.8C41.5,25.8,41.4,25.8,41.4,25.8z"/>
			<path fill="#FFFFFF" d="M39.5,20.9l-0.3,0c-0.3,0-0.7,0-1,0.1c-0.1,0-0.5,0-0.9,0.1c-0.4,0-0.7,0.1-0.8,0.1c-0.1,0-0.1,0-0.2,0
				c-0.1,0-0.1,0.1-0.2,0.2c0,0.1,0,0.2,0,0.3l0,0c0,0.1,0.1,0.1,0.2,0.1c0.1,0,0.2,0,0.3,0c0,0,0.1,0,0.1,0l0,0c0,0,0.2,0,0.3,0
				c0.2,0,0.3,0,0.3,0l0,0c0.2,0,0.5,0,0.8-0.1c0.2,0,0.4,0,0.5-0.1c0.3,0,0.7-0.1,1.1-0.1c0.1,0,0.2,0,0.3-0.1
				c0.2-0.1,0.2-0.2,0.2-0.4c0-0.1-0.1-0.1-0.1-0.1l0,0c-0.1,0-0.1,0-0.2,0c0,0,0,0,0,0c-0.1,0-0.2,0-0.3,0
				C39.6,20.9,39.5,20.9,39.5,20.9z"/>
			<path fill="#FFFFFF" d="M36.3,18.5c0.1-0.1,0.3-0.2,0.4-0.2c0.1-0.1,0.3-0.1,0.4-0.2c0.5-0.2,0.8-0.4,1.1-0.7l0.1-0.1
				c0.1-0.1,0.3-0.2,0.4-0.3c0.2-0.1,0.4-0.3,0.6-0.4c0.1,0,0.1-0.1,0.2-0.1c0,0,0.1-0.1,0.1-0.1c0,0,0-0.1,0-0.1c0,0,0,0,0,0
				c0,0,0,0,0,0c0,0,0-0.1,0-0.1c-0.1-0.1-0.1-0.2-0.2-0.3c0,0-0.1,0-0.1,0c0,0-0.1,0-0.1,0c-0.1,0-0.1,0-0.2,0.1
				c-0.1,0.1-0.2,0.1-0.3,0.2c-0.2,0.2-0.5,0.4-0.8,0.5c-0.2,0.1-0.4,0.2-0.6,0.3c-0.5,0.3-0.9,0.6-1.4,0.8
				c-0.2,0.1-0.4,0.2-0.6,0.3c-0.1,0.1-0.2,0.2-0.1,0.4c0,0.1,0.1,0.2,0.2,0.2c0.1,0,0.1,0,0.2,0l0.2-0.1
				C36,18.6,36.2,18.5,36.3,18.5z"/>
			<path fill="#FFFFFF" d="M34.4,13.5C34.4,13.4,34.4,13.4,34.4,13.5c-0.1,0-0.1,0-0.2-0.1c-0.1,0-0.2,0-0.2,0
				c-0.1,0-0.1,0.1-0.1,0.2c0,0.2-0.1,0.4-0.1,0.6c0,0.1-0.1,0.3-0.1,0.4c-0.1,0.3-0.1,0.6-0.2,0.9L33.3,16c0,0.1-0.1,0.2-0.1,0.3
				l0,0.1c0,0.2,0,0.2,0.1,0.3c0.1,0,0.1,0.1,0.2,0.1c0.1,0,0.1-0.1,0.1-0.1c0.1-0.2,0.1-0.3,0.2-0.5c0.2-0.4,0.3-0.9,0.5-1.4
				c0.1-0.3,0.2-0.6,0.3-0.9C34.7,13.6,34.6,13.5,34.4,13.5z"/>
			<path fill="#FFFFFF" d="M29.9,13.3c0,0.1,0,0.2,0,0.3l0,0l0,0.2c0,0.2,0,0.4,0,0.6c0,0.3,0,0.6,0,0.9c0,0.1,0,0.2,0.1,0.3
				c0.1,0.1,0.2,0.1,0.3,0c0,0,0.1,0,0.1,0c0,0,0.1,0,0.1,0c0,0,0.1,0,0.1-0.1c0-0.1,0-0.1,0-0.2c0-0.1,0-0.2,0-0.3
				c0-0.1,0-0.2,0-0.3c0-0.1,0-0.1,0-0.2c0-0.1,0-0.3,0-0.4c0-0.2,0-0.5,0-0.8c0-0.3,0-0.5,0-0.8c0-0.1,0-0.3,0-0.4l0-0.1
				c0-0.1,0-0.2,0-0.3c0-0.5,0-0.9,0-1.4c0-0.1,0-0.1,0-0.2c0-0.1,0-0.3,0-0.4c0-0.1,0-0.1-0.1-0.2c-0.1-0.1-0.1-0.1-0.2-0.1l-0.1,0
				c-0.1,0-0.3,0-0.4,0c-0.1,0-0.1,0.1-0.1,0.1l0,0.1c0,0.2,0,0.3,0,0.5c0,0.2,0,0.4,0,0.6c0,0.5,0,1,0,1.5
				C29.9,12.8,29.9,13.1,29.9,13.3z"/>
			<path fill="#FFFFFF" d="M27,16.7c0.1,0.1,0.1,0.1,0.2,0.1c0,0,0.1,0,0.2-0.1c0,0,0,0,0,0c0,0,0,0,0,0c0.1-0.1,0.1-0.2,0.1-0.3
				c0-0.1-0.1-0.2-0.1-0.3l-0.1-0.2c-0.1-0.1-0.2-0.3-0.2-0.4c-0.1-0.1-0.1-0.3-0.2-0.4c-0.1-0.3-0.3-0.5-0.4-0.8
				c-0.1-0.1-0.1-0.2-0.2-0.3c-0.1-0.2-0.3-0.5-0.4-0.7c0-0.1-0.1-0.1-0.2-0.2c0,0-0.1-0.1-0.1-0.1c0,0-0.1-0.1-0.1-0.1
				c0,0-0.1,0-0.1,0c0,0-0.1,0-0.1,0.1c-0.1,0.1-0.2,0.2-0.3,0.3c-0.1,0.1-0.1,0.1-0.1,0.2l0,0c0,0.1,0.1,0.2,0.2,0.3
				c0.3,0.3,0.6,0.6,0.7,0.9c0.1,0.2,0.2,0.4,0.3,0.5c0.2,0.3,0.4,0.7,0.6,1C26.8,16.3,26.9,16.5,27,16.7z"/>
			<path fill="#FFFFFF" d="M25.1,18.9C25.1,18.9,25.1,18.9,25.1,18.9c-0.1-0.1-0.1-0.1-0.2-0.1l-0.3-0.2c-0.2-0.2-0.5-0.4-0.8-0.6
				c-0.3-0.3-0.6-0.5-0.9-0.8c-0.2-0.1-0.3-0.3-0.5-0.4c-0.2-0.1-0.3-0.3-0.5-0.4c-0.1-0.1-0.3-0.3-0.4-0.4
				c-0.1-0.1-0.2-0.2-0.3-0.3c-0.2-0.2-0.5-0.4-0.7-0.6c0,0-0.1,0-0.1-0.1c-0.1,0-0.2,0-0.2,0c-0.1,0.1-0.2,0.2-0.3,0.3
				c0,0,0,0.1,0,0.1c0,0,0,0,0,0.1c0,0.1,0,0.2,0.1,0.2l0.1,0.1c0.2,0.2,0.4,0.3,0.5,0.5c0.1,0.1,0.2,0.2,0.3,0.3
				c0.1,0.1,0.2,0.2,0.4,0.3c0.2,0.1,0.3,0.3,0.4,0.4c0.1,0.1,0.3,0.3,0.4,0.4c0.6,0.5,1.2,1,1.8,1.5l0.1,0.1
				c0.1,0.1,0.2,0.2,0.3,0.2c0.1,0.1,0.2,0.1,0.2,0c0.2-0.1,0.3-0.2,0.3-0.3C25.2,19,25.2,18.9,25.1,18.9z"/>
			<path fill="#FFFFFF" d="M20.9,22c0.3,0.1,0.6,0.2,1,0.2l0.1,0c0.2,0,0.3,0.1,0.5,0.1c0.2,0,0.4,0.1,0.6,0.1c0.1,0,0.2,0,0.3,0
				c0.1,0,0.1-0.1,0.1-0.2c0,0,0-0.1,0-0.1l0,0c0-0.1,0-0.2-0.1-0.2l0,0c-0.1,0-0.2-0.1-0.3-0.1c-0.2,0-0.4-0.1-0.5-0.1
				c-0.2,0-0.3-0.1-0.5-0.1c-0.3-0.1-0.5-0.2-0.8-0.2c-0.4-0.1-0.8-0.2-1.1-0.3c-0.1,0-0.2,0-0.3-0.1c-0.3-0.1-0.6-0.1-0.8-0.2
				c0,0-0.1,0-0.1,0c-0.1,0-0.1,0-0.1,0c0,0-0.1,0.1-0.1,0.2c0,0.1,0,0.2,0,0.4c0,0.1,0.1,0.2,0.2,0.3l0.1,0
				c0.2,0.1,0.5,0.1,0.7,0.2C20.1,21.8,20.4,21.9,20.9,22z"/>
			<path fill="#FFFFFF" d="M23.3,24.9c-0.1,0-0.2,0-0.3,0c-0.2,0-0.4,0.1-0.7,0.1c-0.3,0.1-0.7,0.1-1,0.3c-0.5,0.1-1.1,0.3-1.6,0.5
				l-0.1,0c-0.1,0-0.2,0.1-0.3,0.1c-0.1,0-0.1,0.1-0.1,0.1c0,0,0,0.1,0,0.2c0.1,0.1,0.1,0.2,0.2,0.3c0.1,0.1,0.2,0.2,0.3,0.1
				c0,0,0.1,0,0.1,0c0.1,0,0.2-0.1,0.3-0.1c0.2-0.1,0.3-0.1,0.5-0.2c0.2-0.1,0.5-0.1,0.7-0.2c0.3-0.1,0.5-0.2,0.8-0.3
				c0.4-0.1,0.8-0.3,1.1-0.4l0.3-0.1c0.1,0,0.1,0,0.2-0.1c0.1-0.1,0.1-0.1,0-0.2C23.5,24.9,23.4,24.9,23.3,24.9z"/>
		</g>
		<path fill="#FFFFFF" d="M13.7,36.8c-0.2-0.1-0.4,0-0.6,0c0,0-0.1,0-0.1,0.1c-0.1,0.1-0.2,0.1-0.3,0.2c-0.4,0.3-0.8,0.2-1.2,0.2
			c-0.2,0-0.4-0.1-0.6-0.2c-0.4-0.2-0.7-0.5-0.8-0.9c0-0.1,0-0.2-0.1-0.2c-0.1-0.2-0.1-0.5,0-0.7c0.1-0.3,0.2-0.6,0.4-0.8
			c0.2-0.2,0.4-0.4,0.7-0.5c0.3-0.1,0.6-0.1,1,0c0.2,0,0.4,0.1,0.6,0.3c0.1,0.1,0.2,0.1,0.2,0.1c0.1,0.1,0.2,0.1,0.3,0
			c0.1-0.1,0.3-0.1,0.2-0.3c0,0,0,0,0-0.1c0.1-0.1,0-0.3-0.1-0.4c-0.1-0.1-0.2-0.2-0.4-0.3c-0.3-0.1-0.7-0.2-1-0.2
			c-0.4,0-0.7,0-1.1,0.1c-0.5,0.1-0.9,0.4-1.3,0.9c-0.3,0.4-0.5,0.9-0.6,1.5c-0.1,0.6,0,1.1,0.4,1.6c0.1,0.2,0.3,0.4,0.5,0.5
			c0.3,0.2,0.6,0.3,1,0.4c0,0,0.1,0,0.1,0c0.2,0,0.3,0,0.5,0c0,0,0,0,0,0c0.2,0,0.4,0,0.7-0.1c0.3,0,0.5-0.1,0.8-0.3
			c0.3-0.2,0.7-0.4,0.7-0.8c0,0,0,0,0,0C13.8,36.8,13.8,36.8,13.7,36.8z"/>
		<path fill="#FFFFFF" d="M18.9,36.4c0.1,0,0.1,0,0.1,0.1c0,0.1,0,0.1,0,0.2c0,0.4,0,0.7,0,1.1c0,0.2,0.1,0.3,0.2,0.4
			c0.1,0,0.2,0.1,0.2,0c0.1-0.1,0.3-0.1,0.3-0.2c0.1-0.2,0.1-0.4,0.1-0.6c0-0.3,0-0.6,0-1c0-0.6,0-1.2,0-1.8c0-0.4,0-0.8,0-1.2
			c0-0.1,0-0.1,0-0.2c0,0,0-0.1-0.1-0.1c-0.1,0-0.2-0.1-0.3-0.1c0,0-0.1,0-0.1,0c-0.2,0-0.3,0-0.3,0.2c0,0.1,0,0.2,0,0.4
			c0,0.2,0,0.5,0,0.7c0,0,0,0,0,0c0,0.4,0,0.8-0.1,1.2c0,0.1,0,0.1-0.1,0.1c0,0-0.1,0-0.1,0c-0.3,0-0.6,0-0.9,0c-0.2,0-0.5,0-0.7,0
			c-0.1,0-0.2,0-0.4,0c-0.1,0-0.1,0-0.1-0.1c0.1-0.2,0-0.3,0-0.5c0-0.1,0-0.3,0-0.4c0-0.4,0-0.7,0-1.1c0-0.1,0-0.1,0-0.2
			c0-0.1,0-0.1-0.1-0.2c-0.1,0-0.1-0.1-0.2-0.1c0,0-0.1,0-0.1,0c0,0-0.1,0-0.1,0c-0.2,0-0.2,0.1-0.3,0.3c0,0.2,0,0.4,0,0.6
			c0,0.6,0,1.1,0,1.7c0,0.6,0,1.3,0,1.9c0,0.1,0,0.1,0,0.2c0,0,0,0.1,0.1,0.1c0.2,0.2,0.6,0.1,0.7-0.2c0-0.1,0.1-0.3,0.1-0.4
			c0-0.2,0-0.3,0-0.5c0-0.1,0-0.3,0-0.4c0,0,0-0.1,0.1-0.1c0,0,0.1,0,0.1,0c0.2,0,0.5,0,0.7,0c0.2,0,0.4,0.1,0.7,0c0,0,0,0,0,0
			c0.1,0,0.2,0,0.3,0C18.7,36.4,18.8,36.4,18.9,36.4z"/>
		<path fill="#FFFFFF" d="M21.7,43.8c-0.1,0-0.2,0-0.3,0c-0.5,0-1,0-1.4,0c0,0-0.1,0-0.1,0c-0.1,0-0.3,0-0.4,0c-0.1,0-0.1,0-0.1-0.1
			c0-0.2,0-0.3,0-0.5c0-0.1,0-0.1,0.1-0.1c0.2,0,0.4,0,0.6,0c0.1,0,0.2,0,0.3,0c0.1,0,0.2,0,0.4,0c0.2,0,0.3-0.2,0.3-0.3
			c0,0,0-0.1,0-0.1c0-0.1,0-0.1-0.1-0.1c-0.1,0-0.1,0-0.2,0c-0.3,0-0.5,0-0.8,0c-0.2,0-0.3,0-0.5,0c-0.1,0-0.1,0-0.1-0.1
			c0-0.4,0-0.8,0-1.1c0,0,0-0.1,0.1-0.1c0,0,0.1,0,0.1,0c0.6,0,1.2,0,1.7,0c0.3,0,0.4-0.1,0.4-0.3c0-0.1,0-0.1-0.1-0.1
			c-0.1,0-0.1,0-0.2,0c-0.4,0-0.7,0-1.1,0c-0.4,0-0.7,0-1.1,0c-0.1,0-0.2,0-0.3,0.1c-0.1,0-0.2,0.1-0.2,0.2c0,0.1,0,0.1,0,0.2
			c0,0.1,0,0.3,0,0.4c0,0.4,0,0.8,0,1.1c0,0,0,0,0,0c0,0.4,0,0.9,0,1.3c0,0.1,0,0.2,0,0.2c0,0.2,0.1,0.3,0.3,0.3c0.5,0,1,0,1.6,0
			c0.1,0,0.3,0,0.4,0c0.2,0,0.3,0,0.5,0c0.2,0,0.3-0.1,0.3-0.3c0,0,0-0.1,0-0.1C21.8,43.9,21.8,43.9,21.7,43.8z"/>
		<path fill="#FFFFFF" d="M23,37.8c0-0.1,0-0.2,0.1-0.4c0-0.2,0-0.4,0-0.6c0-0.5,0-1,0-1.5c0-0.7,0-1.4,0.1-2.1c0-0.1,0-0.1-0.1-0.1
			c-0.1,0-0.2-0.1-0.4,0c-0.1,0-0.1,0-0.2,0c-0.1,0-0.2,0.1-0.2,0.2c0,0.1,0,0.2,0,0.3c0,0.4,0,0.8,0,1.3c0,0.5,0,1,0,1.5
			c0,0.2,0,0.3,0,0.5c0,0.3,0,0.5,0,0.8c0,0.2,0.1,0.3,0.2,0.4C22.7,38.1,22.9,38,23,37.8z"/>
		<path fill="#FFFFFF" d="M28.5,40.4c-0.1,0-0.1,0-0.2,0c0,0-0.1,0-0.1,0c-0.1-0.1-0.2,0-0.2,0.1c0,0-0.1,0.1-0.1,0.2
			c-0.1,0.3-0.3,0.7-0.4,1c-0.2,0.5-0.3,1-0.5,1.5c0-0.1-0.1-0.1-0.1-0.2c-0.1-0.3-0.2-0.6-0.3-0.9c-0.1-0.3-0.2-0.6-0.3-0.9
			c0-0.2-0.2-0.4-0.2-0.5c0,0-0.1-0.1-0.1-0.1c-0.2-0.1-0.3,0-0.5-0.1c0,0-0.1,0-0.1,0.1c0,0.1-0.1,0.1-0.1,0.2
			c-0.1,0.2-0.2,0.4-0.3,0.7c0,0.1-0.1,0.2-0.1,0.3c-0.2,0.5-0.3,1-0.5,1.4c0,0,0,0,0,0.1c0,0,0,0-0.1-0.1c-0.2-0.5-0.3-1-0.5-1.4
			c-0.1-0.4-0.2-0.8-0.4-1.1c-0.1-0.1-0.1-0.2-0.3-0.2c-0.1,0-0.2,0-0.3,0.1c-0.1,0-0.1,0.1-0.1,0.1c0,0.1,0,0.2,0,0.3
			c0.1,0.3,0.2,0.7,0.3,1c0.1,0.5,0.3,1,0.5,1.4c0.1,0.3,0.2,0.5,0.3,0.8c0,0.1,0.1,0.2,0.3,0.2c0.1,0,0.1,0,0.2,0
			c0.1,0,0.3,0,0.4-0.2c0-0.1,0.1-0.1,0.1-0.2c0.2-0.5,0.4-1,0.5-1.4c0.1-0.3,0.2-0.6,0.3-1c0-0.1,0-0.1,0.1-0.2c0,0,0,0,0,0
			c0.1,0.6,0.3,1.1,0.5,1.6c0.1,0.2,0.2,0.5,0.2,0.7c0,0.2,0.1,0.3,0.2,0.5c0.1,0.1,0.2,0.2,0.3,0.1c0.1,0,0.2-0.1,0.3-0.2
			c0-0.1,0.1-0.2,0.1-0.3c0.1-0.3,0.2-0.6,0.3-0.9c0.2-0.6,0.4-1.1,0.6-1.7c0.1-0.3,0.2-0.6,0.4-0.9C28.6,40.5,28.6,40.5,28.5,40.4z
			"/>
		<path fill="#FFFFFF" d="M38.9,36.9c0-0.2,0-0.5,0-0.7c0-0.4,0-0.8,0-1.3c0-0.3,0-0.6,0-0.9c0,0,0-0.1,0-0.1c0,0,0.1-0.1,0.1-0.1
			c0,0,0.1,0,0.1,0c0.3,0,0.6,0,0.9,0c0.2,0,0.4-0.2,0.4-0.3c0-0.1,0-0.2,0.1-0.3c0,0,0-0.1-0.1-0.1c-0.1,0-0.2,0-0.3,0
			c-0.5,0-1,0-1.6,0c0,0,0,0,0,0c-0.5,0-1,0-1.5,0c-0.2,0-0.5,0.1-0.7,0.1c-0.2,0-0.2,0.1-0.2,0.2c0,0.1,0,0.1,0,0.2
			c0,0.2,0,0.2,0.2,0.3c0.1,0,0.2,0,0.3,0c0.1,0,0.1,0,0.2,0c0.4,0,0.7,0,1.1,0c0.1,0,0.1,0,0.1,0.1c0,0,0,0.1,0,0.1
			c0,0.5,0,1.1,0,1.6c0,0.3,0,0.6,0,0.9c0,0.3,0,0.5,0,0.8c0,0.2,0,0.3,0,0.5c0,0.1,0,0.2,0.1,0.2c0.1,0.1,0.2,0.2,0.3,0.1
			c0.1,0,0.3-0.1,0.3-0.2c0.1-0.1,0.2-0.3,0.2-0.5C38.9,37.4,38.9,37.2,38.9,36.9z"/>
		<path fill="#FFFFFF" d="M42.1,38.2c0.1,0,0.2,0,0.3,0c0.1,0,0.1,0,0.2,0c0.4,0,0.7,0,1.1,0c0.1,0,0.3,0,0.4,0c0,0,0,0,0,0
			c0.2,0,0.3,0,0.5,0c0.2,0,0.3,0,0.5,0c0.2,0,0.3-0.1,0.4-0.3c0-0.1,0-0.1,0-0.2c0-0.1,0.1-0.1,0-0.2c0,0-0.1-0.1-0.2-0.1
			c-0.1,0-0.1,0-0.2,0c-0.3,0-0.5,0-0.8,0c-0.1,0-0.3,0-0.4,0c-0.2,0-0.5-0.1-0.7,0c0,0,0,0,0,0c-0.1,0-0.2,0-0.3,0
			c-0.1,0-0.1,0-0.1-0.1c0,0,0-0.1,0-0.1c0-0.3,0-0.7,0-1c0-0.4,0-0.8,0-1.2c0-0.3,0-0.6,0-0.9c0-0.2,0-0.4,0.1-0.7
			c0-0.2,0-0.3-0.2-0.3c-0.1,0-0.1,0-0.2,0c0,0-0.1,0-0.1,0c-0.2,0-0.3,0.1-0.3,0.2c0,0.2-0.1,0.4-0.1,0.6c0,0.3,0,0.6,0,0.8
			c0,0.7,0,1.4-0.1,2.1c0,0.1,0,0.2,0,0.2c-0.1,0.3,0,0.5,0,0.8C41.9,38.1,42,38.1,42.1,38.2z"/>
		<path fill="#FFFFFF" d="M46.1,42.6c-0.2-0.1-0.4-0.2-0.6-0.3c-0.3-0.1-0.6-0.2-0.8-0.4c-0.2-0.1-0.3-0.3-0.4-0.5c0,0,0-0.1,0-0.1
			c0.1-0.2,0.2-0.3,0.4-0.3c0.3,0,0.6,0,0.9,0.2c0.1,0.1,0.1,0.1,0.2,0.1c0,0,0.1,0,0.1,0c0.1,0,0.3-0.1,0.3-0.2
			c0-0.1,0-0.1,0.1-0.2c0-0.1,0-0.1,0-0.2c0,0-0.1-0.1-0.1-0.1c-0.3-0.2-0.7-0.4-1.2-0.4c-0.1,0-0.3,0-0.4,0c-0.1,0-0.3,0.1-0.4,0.2
			c-0.2,0.1-0.3,0.3-0.4,0.5c-0.2,0.3-0.2,0.6,0,0.9c0.2,0.3,0.5,0.6,0.8,0.7c0.3,0.1,0.5,0.2,0.8,0.3c0.2,0.1,0.3,0.2,0.4,0.3
			c0,0.1,0.1,0.1,0,0.2c-0.1,0.2-0.4,0.4-0.7,0.4c-0.3,0-0.6-0.1-0.8-0.3c0,0,0,0,0,0c-0.1-0.1-0.3,0-0.5-0.1c0,0-0.1,0-0.1,0.1
			c-0.1,0.1-0.1,0.2-0.1,0.3c0,0.1,0,0.1,0.1,0.1c0.2,0.1,0.5,0.2,0.8,0.3c0.1,0,0.1,0,0.2,0c0.2,0.1,0.4,0.1,0.7,0
			c0.4-0.1,0.7-0.2,0.9-0.6c0.1-0.2,0.2-0.3,0.2-0.5c0-0.1,0-0.3,0-0.4C46.3,42.9,46.2,42.7,46.1,42.6z"/>
		<path fill="#FFFFFF" d="M50.7,37.4c-0.1,0-0.2,0-0.4-0.1c-0.3,0-0.6,0-0.9,0c0,0,0,0,0,0c-0.5,0-1.1,0-1.6-0.1
			c-0.1,0-0.2,0-0.2-0.2c0-0.2,0-0.5,0-0.7c0-0.2,0-0.2,0.2-0.2c0.2,0,0.5,0,0.7,0c0.3,0,0.6,0,0.9,0c0.2,0,0.3-0.1,0.4-0.1
			c0.1-0.1,0.1-0.2,0.1-0.3c0,0,0-0.1,0-0.1c0-0.1,0-0.1,0-0.1c-0.1-0.1-0.2-0.1-0.4-0.1c-0.2,0-0.4,0-0.7,0c-0.4,0-0.7-0.1-1.1,0
			c0,0-0.1,0-0.1,0c-0.1,0-0.1,0-0.1-0.1c0-0.2,0-0.4,0-0.6c0-0.1,0-0.2,0-0.4c0-0.2,0-0.4,0-0.6c0-0.1,0-0.1,0.1-0.1
			c0.2,0,0.4,0,0.6,0c0.2,0,0.4,0,0.6,0c0.3,0,0.5,0.1,0.8,0c0,0,0.1,0,0.2,0c0.1,0,0.2,0,0.2,0c0.2,0,0.3-0.1,0.4-0.1
			c0.1,0,0.1-0.2,0.1-0.3c0,0,0-0.1,0-0.1c0.1-0.1,0.1-0.1-0.1-0.2c-0.3-0.1-0.5-0.1-0.8-0.1c-0.2,0-0.3,0-0.5,0c-0.1,0-0.2,0-0.3,0
			c-0.3,0-0.6,0-0.8,0c-0.3,0-0.6,0-1,0c-0.2,0-0.3,0.1-0.3,0.3c0,0.1-0.1,0.3-0.1,0.4c0,0.3,0,0.6,0,1c0,0.3,0,0.5,0,0.8
			c0,0.5,0,1.1,0,1.6c0,0.2,0,0.3,0,0.5c0,0.1,0,0.2,0,0.2c0,0.1,0,0.1,0.1,0.2c0.1,0.1,0.2,0.1,0.4,0.1c0.1,0,0.2,0,0.4,0
			c0.2,0,0.4,0,0.6,0c0.2,0,0.4,0,0.6,0c0,0,0.1,0,0.1,0c0.1,0,0.3,0,0.4,0c0.2,0,0.5,0,0.7,0c0.2,0,0.3,0,0.5-0.1
			c0.1-0.1,0.2-0.1,0.2-0.2c0-0.1,0-0.1,0-0.2C50.8,37.5,50.8,37.4,50.7,37.4z"/>
		<path fill="#FFFFFF" d="M35,35.8c0-0.2,0.1-0.4,0-0.6c0-0.2-0.1-0.5-0.2-0.7c-0.1-0.2-0.2-0.4-0.3-0.5c-0.1-0.2-0.3-0.4-0.5-0.5
			c-0.1-0.1-0.3-0.1-0.4-0.2c-0.2-0.1-0.3-0.1-0.5-0.2c-0.1,0-0.3-0.1-0.4,0c-0.2,0-0.4,0.1-0.6,0.1c-0.4,0.1-0.7,0.2-1,0.4
			c-0.3,0.2-0.5,0.4-0.8,0.7c-0.1,0.1-0.2,0.3-0.2,0.4C30,35,30,35.4,30,35.7c0,0.1,0,0.3,0,0.4c0.1,0.5,0.2,1,0.6,1.4
			c0.2,0.2,0.4,0.3,0.6,0.4c0.4,0.2,0.8,0.3,1.2,0.3c0.2,0,0.4,0,0.6-0.1c0.2-0.1,0.5-0.1,0.7-0.3c0.2-0.2,0.5-0.3,0.6-0.6
			C34.7,36.8,35,36.3,35,35.8z M34.2,36c-0.1,0.4-0.3,0.7-0.5,1c-0.2,0.2-0.5,0.4-0.7,0.4c-0.1,0-0.3,0-0.4,0.1
			c-0.3,0-0.6-0.1-0.9-0.3c-0.1,0-0.1-0.1-0.2-0.1c-0.1-0.1-0.2-0.2-0.3-0.3c-0.2-0.3-0.3-0.6-0.4-0.9c0-0.3,0-0.6,0-0.9
			c0-0.1,0.1-0.1,0.1-0.2c0.1-0.1,0.1-0.1,0.2-0.2c0.1-0.2,0.3-0.3,0.6-0.4c0.2-0.1,0.4-0.1,0.6-0.2c0.3,0,0.5,0,0.7,0.1
			c0.3,0.1,0.5,0.3,0.7,0.6c0.2,0.2,0.3,0.5,0.4,0.7C34.3,35.5,34.3,35.8,34.2,36z"/>
		<path fill="#FFFFFF" d="M28.5,33.6c-0.2-0.3-0.6-0.5-0.9-0.6C27.3,33,27.1,33,26.9,33c-0.5,0-1,0-1.5,0.1
			c-0.2,0.1-0.3,0.1-0.3,0.3c0,0.1,0,0.2,0,0.4c0,0.6,0,1.2,0,1.9c0,0.3,0,0.6,0,0.9c0,0.5,0,1,0.1,1.4c0,0.1,0,0.1,0,0.2
			c0,0,0,0.1,0.1,0.1c0,0,0.1,0,0.1,0c0.2,0.1,0.5-0.1,0.5-0.3c0-0.3,0.1-0.5,0-0.8c0-0.1,0-0.3,0-0.4c0-0.1,0-0.2,0-0.3
			c0,0,0-0.1,0-0.1c0,0,0.1,0,0.1,0c0.1,0,0.3,0,0.4,0c0.1,0,0.3,0,0.4,0c0.4,0,0.8-0.1,1.1-0.4c0.3-0.2,0.5-0.4,0.7-0.7
			c0.1-0.2,0.1-0.5,0.2-0.7c0-0.2,0-0.4-0.1-0.6C28.7,33.9,28.6,33.8,28.5,33.6z M27.9,35.1c-0.2,0.3-0.5,0.5-0.8,0.5
			c-0.1,0-0.3,0.1-0.4,0c0,0-0.1,0-0.1,0c-0.2,0-0.4,0-0.5,0c0,0,0,0,0,0c0,0,0,0,0,0c0-0.3,0-0.6-0.1-0.9c0-0.2,0-0.4,0-0.6
			c0-0.1,0-0.1,0-0.2c0-0.1,0-0.1,0.1-0.1c0.2,0,0.3,0,0.5,0c0.2,0,0.3,0,0.5,0c0.1,0,0.2,0,0.3,0c0.3,0.1,0.5,0.2,0.7,0.5
			c0.1,0.2,0.2,0.3,0.2,0.5C28,34.9,28,35,27.9,35.1z"/>
		<path fill="#FFFFFF" d="M16.1,42.9c0.1,0,0.1-0.1,0.2-0.1c0.2-0.1,0.4-0.2,0.5-0.4c0.2-0.3,0.2-0.5,0.2-0.9c0-0.2-0.1-0.3-0.2-0.5
			c-0.1-0.2-0.3-0.3-0.5-0.4c-0.1,0-0.1,0-0.2-0.1c-0.1-0.1-0.2-0.1-0.4-0.1c-0.2,0-0.4,0-0.5-0.1c-0.4,0-0.8-0.1-1.2,0.1
			c-0.2,0.1-0.3,0.1-0.2,0.3c0,0.3,0,0.5,0,0.8c0,0.8,0,1.6,0,2.4c0,0.2,0.1,0.3,0.2,0.3c0.1,0,0.1,0,0.2-0.1
			c0.1-0.1,0.2-0.2,0.2-0.3c0-0.1,0-0.2,0-0.4c0-0.2,0-0.4,0-0.5c0-0.1,0-0.1,0.1-0.1c0.2,0,0.4,0,0.6,0c0.1,0,0.2,0,0.3,0.1
			c0.2,0.3,0.5,0.7,0.8,1c0.1,0.1,0.1,0.1,0.2,0.2c0.1,0.1,0.2,0.2,0.4,0.2c0.1,0,0.3-0.2,0.3-0.3c0,0,0-0.1,0-0.1
			c0-0.1,0-0.2-0.1-0.2C16.7,43.6,16.4,43.2,16.1,42.9z M15.7,42.4c-0.2,0-0.4,0-0.7,0.1c0,0,0,0,0,0c-0.1,0-0.3,0-0.4,0
			c-0.1,0-0.1,0-0.1-0.1c0,0,0,0,0,0c0-0.4,0-0.7,0-1.1c0-0.1,0-0.1,0.1-0.1c0.3,0,0.7,0.1,1,0.1c0.2,0,0.5,0.2,0.6,0.4
			c0.1,0.1,0.1,0.2,0,0.4C16.2,42.2,16,42.3,15.7,42.4z"/>
		<path fill="#FFFFFF" d="M32.5,43.1c0-0.2-0.1-0.3-0.2-0.5c-0.1-0.2-0.2-0.4-0.2-0.6c-0.1-0.4-0.3-0.7-0.4-1.1
			c-0.1-0.2-0.2-0.3-0.3-0.4c-0.1-0.1-0.3-0.2-0.4-0.2c-0.2,0-0.2,0-0.3,0.1c0,0.1-0.1,0.2-0.1,0.3c-0.3,0.5-0.5,1-0.7,1.6
			c-0.1,0.4-0.3,0.8-0.5,1.2c0,0.1-0.1,0.2-0.1,0.3c0,0.1-0.1,0.3-0.1,0.4c0,0.1,0,0.1,0.1,0.1c0.2,0.2,0.5,0.1,0.6-0.1
			c0.1-0.1,0.1-0.3,0.2-0.4c0.1-0.1,0.1-0.3,0.3-0.2c0,0,0,0,0,0c0.3,0,0.6,0,0.9,0c0.2,0,0.4,0,0.5,0c0.1,0,0.2,0,0.3,0.2
			c0,0.1,0,0.1,0.1,0.2c0,0.1,0.1,0.2,0.1,0.3c0.1,0.2,0.2,0.2,0.4,0.1c0.1,0,0.2-0.2,0.2-0.2c0.1-0.1,0.1-0.2,0-0.3
			C32.8,43.7,32.6,43.4,32.5,43.1z M31.6,43.1C31.6,43.1,31.6,43.1,31.6,43.1c-0.5,0-0.9,0-1.3,0c0-0.1,0-0.1,0.1-0.2
			c0.2-0.3,0.3-0.7,0.4-1.1c0.1-0.2,0.1-0.4,0.2-0.5c0,0,0,0,0.1,0c0.1,0.2,0.1,0.3,0.2,0.5c0,0.1,0,0.1,0.1,0.2
			c0.1,0.2,0.2,0.5,0.3,0.7c0,0.1,0.1,0.2,0.2,0.3C31.7,43.1,31.7,43.1,31.6,43.1z"/>
		<path fill="#FFFFFF" d="M37.1,43.5c-0.1-0.1-0.2-0.3-0.3-0.4c-0.1-0.1-0.1-0.1,0-0.2c0,0,0.1,0,0.1-0.1c0.2-0.1,0.4-0.3,0.5-0.6
			c0-0.1,0-0.2,0.1-0.2c0.1-0.5-0.1-0.9-0.5-1.1c-0.3-0.2-0.5-0.3-0.8-0.3c-0.1,0-0.2,0-0.3,0c-0.2,0-0.4,0-0.6-0.1
			c-0.1,0-0.2,0-0.3,0c-0.1,0-0.2,0-0.3,0c-0.2,0.1-0.2,0.1-0.2,0.3c0,0.2,0,0.3,0,0.5c0,0.4,0,0.9,0,1.3c0,0.2,0,0.3,0,0.5
			c0,0,0,0,0,0c0,0.3,0,0.7,0,1c0,0.1,0,0.1,0,0.2c0,0,0,0.1,0.1,0.1c0.2,0.1,0.5,0,0.5-0.2c0-0.1,0-0.3,0-0.4c0-0.2,0-0.4,0-0.6
			c0-0.1,0-0.1,0.1-0.1c0.1,0,0.2,0,0.3,0c0.1,0,0.2,0,0.3,0c0.1,0,0.1,0,0.2,0.1c0.1,0.1,0.2,0.3,0.3,0.4c0.2,0.2,0.4,0.5,0.5,0.7
			c0.1,0.1,0.1,0.2,0.2,0.3c0.1,0.1,0.2,0.2,0.3,0.2c0.1,0,0.2-0.1,0.3-0.2c0-0.1,0-0.1,0.1-0.2c0-0.1,0-0.1,0-0.2
			C37.4,43.9,37.3,43.7,37.1,43.5z M36.3,42.4c-0.3,0-0.6,0.1-0.9,0.1c0,0,0,0,0,0c-0.1,0-0.2,0-0.3,0c0,0-0.1,0-0.1-0.1
			c0-0.2,0-0.4,0-0.6c0-0.2,0-0.5,0-0.7c0-0.1,0-0.1,0.1-0.1c0.1,0,0.2,0,0.3,0c0.4,0,0.9,0.1,1.2,0.4c0.1,0.1,0.2,0.3,0.3,0.4
			c0,0.2,0,0.3-0.2,0.4C36.6,42.3,36.4,42.4,36.3,42.4z"/>
		<path fill="#FFFFFF" d="M42,41.2c-0.3-0.2-0.5-0.4-0.8-0.5c-0.2-0.1-0.4-0.1-0.6-0.1c-0.3,0-0.6-0.1-0.9-0.1c-0.2,0-0.4,0-0.6,0
			c-0.1,0-0.2,0.1-0.2,0.2c0,0.1,0,0.1,0,0.2c0,0.3,0,0.7,0,1c0,0.4,0,0.7,0,1.1c0,0.2,0.1,0.5,0,0.7c0,0.2,0,0.4,0,0.6
			c0,0.2,0.2,0.3,0.4,0.2c0.1-0.1,0.2-0.1,0.3-0.1c0.1,0,0.2,0,0.3,0c0.2,0,0.4-0.1,0.6-0.1c0.4,0,0.9-0.2,1.2-0.4
			c0.6-0.4,0.8-0.9,0.9-1.6c0-0.1-0.1-0.3-0.1-0.5C42.4,41.6,42.3,41.4,42,41.2z M41.8,42.9c0,0.1-0.1,0.2-0.2,0.3
			c-0.2,0.2-0.4,0.3-0.6,0.4c-0.4,0.1-0.8,0.2-1.2,0.2c-0.2,0-0.2,0-0.2-0.2c0-0.1,0-0.2,0-0.4c0-0.3,0-0.7,0-1.1c0-0.3,0-0.6,0-0.9
			c0-0.1,0-0.1,0.1-0.1c0.2,0,0.5,0,0.7,0.1c0.1,0,0.1,0,0.2,0c0.5,0.1,0.9,0.3,1.2,0.7C41.9,42.2,41.9,42.6,41.8,42.9z"/>
	</g>
</g>
</svg>
